{"asset":{"version":"2.0","generator":"Blockbench 4.11.2 glTF exporter"},"scenes":[{"nodes":[7],"name":"blockbench_export"}],"scene":0,"nodes":[{"translation":[-0.115625,-0.203125,0],"name":"bone3"},{"translation":[-0.19375,0.25,0],"name":"bone4"},{"translation":[0.196875,0.25,0],"name":"bone5"},{"translation":[-0.0062500000000000056,0.25,0],"name":"bone6"},{"translation":[0.0875,-0.203125,0],"name":"bone"},{"translation":[0.0062500000000000056,0.5,0],"name":"bone2","children":[0,1,2,3,4]},{"name":"bone7","children":[5]},{"name":"bone7","mesh":0,"children":[6],"skin":0}],"bufferViews":[{"buffer":0,"byteOffset":0,"byteLength":1728,"target":34962,"byteStride":12},{"buffer":0,"byteOffset":1728,"byteLength":1728,"target":34962,"byteStride":12},{"buffer":0,"byteOffset":3456,"byteLength":1152,"target":34962,"byteStride":8},{"buffer":0,"byteOffset":4608,"byteLength":1152,"target":34962,"byteStride":8},{"buffer":0,"byteOffset":5760,"byteLength":2304,"target":34962,"byteStride":16},{"buffer":0,"byteOffset":8064,"byteLength":432,"target":34963},{"buffer":0,"byteOffset":8496,"byteLength":448},{"buffer":0,"byteOffset":8944,"byteLength":20},{"buffer":0,"byteOffset":8964,"byteLength":80},{"buffer":0,"byteOffset":9044,"byteLength":12},{"buffer":0,"byteOffset":9056,"byteLength":48},{"buffer":0,"byteOffset":9104,"byteLength":20},{"buffer":0,"byteOffset":9124,"byteLength":60},{"buffer":0,"byteOffset":9184,"byteLength":20},{"buffer":0,"byteOffset":9204,"byteLength":80},{"buffer":0,"byteOffset":9284,"byteLength":20},{"buffer":0,"byteOffset":9304,"byteLength":80},{"buffer":0,"byteOffset":9384,"byteLength":8},{"buffer":0,"byteOffset":9392,"byteLength":32},{"buffer":0,"byteOffset":9424,"byteLength":12},{"buffer":0,"byteOffset":9436,"byteLength":48},{"buffer":0,"byteOffset":9484,"byteLength":20},{"buffer":0,"byteOffset":9504,"byteLength":60},{"buffer":0,"byteOffset":9564,"byteLength":12},{"buffer":0,"byteOffset":9576,"byteLength":48},{"buffer":0,"byteOffset":9624,"byteLength":16},{"buffer":0,"byteOffset":9640,"byteLength":64},{"buffer":0,"byteOffset":9704,"byteLength":16},{"buffer":0,"byteOffset":9720,"byteLength":64}],"buffers":[{"byteLength":9784,"uri":"data:application/octet-stream;base64,"}],"accessors":[{"bufferView":0,"componentType":5126,"count":144,"max":[0.328125,0.890625,0.09375],"min":[-0.3125,0,-0.09375],"type":"VEC3"},{"bufferView":1,"componentType":5126,"count":144,"max":[1,1,1],"min":[-1,-1,-1],"type":"VEC3"},{"bufferView":2,"componentType":5126,"count":144,"max":[0.6875,0.75],"min":[0,0],"type":"VEC2"},{"bufferView":3,"componentType":5123,"count":144,"max":[0,6,0,0],"min":[0,1,0,0],"type":"VEC4"},{"bufferView":4,"componentType":5126,"count":144,"max":[0,1,0,0],"min":[0,1,0,0],"type":"VEC4"},{"bufferView":5,"componentType":5123,"count":216,"max":[143],"min":[0],"type":"SCALAR"},{"bufferView":6,"componentType":5126,"count":7,"max":[1,0,0,0,0,1,0,0,0,0,1,0,0.1875,0,0,1],"min":[1,0,0,0,0,1,0,0,0,0,1,0,-0.203125,-0.75,0,1],"type":"MAT4"},{"bufferView":7,"componentType":5126,"count":5,"max":[1],"min":[0],"type":"SCALAR"},{"bufferView":8,"componentType":5126,"count":5,"max":[-0.13052618503570557,0,0,0.9914448857307434],"min":[-0.2164396196603775,0,0,0.9762960076332092],"type":"VEC4"},{"bufferView":9,"componentType":5126,"count":3,"max":[1],"min":[0],"type":"SCALAR"},{"bufferView":10,"componentType":5126,"count":3,"max":[0.13052618503570557,0,0,1],"min":[0,0,0,0.9914448857307434],"type":"VEC4"},{"bufferView":11,"componentType":5126,"count":5,"max":[1],"min":[0],"type":"SCALAR"},{"bufferView":12,"componentType":5126,"count":5,"max":[-0.11562500149011612,-0.140625,0],"min":[-0.11562500149011612,-0.203125,-0.0625],"type":"VEC3"},{"bufferView":13,"componentType":5126,"count":5,"max":[1],"min":[0],"type":"SCALAR"},{"bufferView":14,"componentType":5126,"count":5,"max":[0.2164396196603775,0,0,1],"min":[-0.36243805289268494,0,0,0.9320078492164612],"type":"VEC4"},{"bufferView":15,"componentType":5126,"count":5,"max":[1],"min":[0],"type":"SCALAR"},{"bufferView":16,"componentType":5126,"count":5,"max":[0.40274667739868164,0,0,1],"min":[-0.2164396196603775,0,0,0.9153114557266235],"type":"VEC4"},{"bufferView":17,"componentType":5126,"count":2,"max":[1],"min":[0],"type":"SCALAR"},{"bufferView":18,"componentType":5126,"count":2,"max":[0.08715574443340302,0,0,0.9961947202682495],"min":[0.08715574443340302,0,0,0.9961947202682495],"type":"VEC4"},{"bufferView":19,"componentType":5126,"count":3,"max":[1],"min":[0],"type":"SCALAR"},{"bufferView":20,"componentType":5126,"count":3,"max":[0.19509032368659973,0,0,1],"min":[0,0,0,0.9807852506637573],"type":"VEC4"},{"bufferView":21,"componentType":5126,"count":5,"max":[1],"min":[0],"type":"SCALAR"},{"bufferView":22,"componentType":5126,"count":5,"max":[0.08749999850988388,-0.140625,0],"min":[0.08749999850988388,-0.203125,-0.125],"type":"VEC3"},{"bufferView":23,"componentType":5126,"count":3,"max":[0.75],"min":[0],"type":"SCALAR"},{"bufferView":24,"componentType":5126,"count":3,"max":[0,0,0,1],"min":[-0.13052618503570557,0,0,0.9914448857307434],"type":"VEC4"},{"bufferView":25,"componentType":5126,"count":4,"max":[0.75],"min":[0],"type":"SCALAR"},{"bufferView":26,"componentType":5126,"count":4,"max":[0.8766873478889465,0,0.1485174596309662,0.9997619986534119],"min":[0.02181488461792469,-0.11863867193460464,0,0.45637455582618713],"type":"VEC4"},{"bufferView":27,"componentType":5126,"count":4,"max":[0.75],"min":[0],"type":"SCALAR"},{"bufferView":28,"componentType":5126,"count":4,"max":[0.9526780247688293,0.16895318031311035,0,0.9997619986534119],"min":[0.02181488461792469,0,-0.18729643523693085,0.23311881721019745],"type":"VEC4"}],"materials":[{"pbrMetallicRoughness":{"metallicFactor":0,"roughnessFactor":1,"baseColorTexture":{"index":0}},"alphaMode":"MASK","alphaCutoff":0.05,"doubleSided":true}],"textures":[{"sampler":0,"source":0,"name":"texture"}],"samplers":[{"magFilter":9728,"minFilter":9728,"wrapS":33071,"wrapT":33071}],"images":[{"mimeType":"image/png","uri":"data:image/png;base64,"}],"meshes":[{"primitives":[{"mode":4,"attributes":{"POSITION":0,"NORMAL":1,"TEXCOORD_0":2,"JOINTS_0":3,"WEIGHTS_0":4},"indices":5,"material":0}]}],"skins":[{"inverseBindMatrices":6,"joints":[6,5,0,1,2,3,4],"skeleton":6}],"animations":[{"name":"walk","samplers":[{"input":7,"output":8,"interpolation":"LINEAR"},{"input":9,"output":10,"interpolation":"LINEAR"},{"input":11,"output":12,"interpolation":"LINEAR"},{"input":13,"output":14,"interpolation":"LINEAR"},{"input":15,"output":16,"interpolation":"LINEAR"},{"input":17,"output":18,"interpolation":"LINEAR"},{"input":19,"output":20,"interpolation":"LINEAR"},{"input":21,"output":22,"interpolation":"LINEAR"}],"channels":[{"sampler":0,"target":{"node":5,"path":"rotation"}},{"sampler":1,"target":{"node":0,"path":"rotation"}},{"sampler":2,"target":{"node":0,"path":"translation"}},{"sampler":3,"target":{"node":1,"path":"rotation"}},{"sampler":4,"target":{"node":2,"path":"rotation"}},{"sampler":5,"target":{"node":3,"path":"rotation"}},{"sampler":6,"target":{"node":4,"path":"rotation"}},{"sampler":7,"target":{"node":4,"path":"translation"}}]},{"name":"attack","samplers":[{"input":23,"output":24,"interpolation":"LINEAR"},{"input":25,"output":26,"interpolation":"LINEAR"},{"input":27,"output":28,"interpolation":"LINEAR"}],"channels":[{"sampler":0,"target":{"node":5,"path":"rotation"}},{"sampler":1,"target":{"node":1,"path":"rotation"}},{"sampler":2,"target":{"node":2,"path":"rotation"}}]}]}