{"asset":{"version":"2.0","generator":"Blockbench 4.11.2 glTF exporter"},"scenes":[{"nodes":[14],"name":"blockbench_export"}],"scene":0,"nodes":[{"name":"cube","mesh":0},{"translation":[0.09375,0.296875,0],"name":"bone","children":[0]},{"rotation":[0,0,0.7071067811865475,0.7071067811865476],"name":"cube","mesh":1},{"translation":[0.0062500000000000056,0.5,0],"name":"bone2","children":[2]},{"name":"cube","mesh":2},{"translation":[-0.109375,0.296875,0],"name":"bone3","children":[4]},{"name":"cube","mesh":3},{"translation":[-0.1875,0.75,0],"name":"bone4","children":[6]},{"name":"cube","mesh":4},{"translation":[0.203125,0.75,0],"name":"bone5","children":[8]},{"name":"bone7"},{"name":"cube","mesh":5},{"translation":[0,0.75,0],"name":"bone6","children":[10,11]},{"name":"bone7","children":[1,3,5,7,9,12]},{"children":[13]}],"bufferViews":[{"buffer":0,"byteOffset":0,"byteLength":288,"target":34962,"byteStride":12},{"buffer":0,"byteOffset":288,"byteLength":288,"target":34962,"byteStride":12},{"buffer":0,"byteOffset":576,"byteLength":192,"target":34962,"byteStride":8},{"buffer":0,"byteOffset":768,"byteLength":72,"target":34963},{"buffer":0,"byteOffset":840,"byteLength":288,"target":34962,"byteStride":12},{"buffer":0,"byteOffset":1128,"byteLength":288,"target":34962,"byteStride":12},{"buffer":0,"byteOffset":1416,"byteLength":192,"target":34962,"byteStride":8},{"buffer":0,"byteOffset":1608,"byteLength":72,"target":34963},{"buffer":0,"byteOffset":1680,"byteLength":288,"target":34962,"byteStride":12},{"buffer":0,"byteOffset":1968,"byteLength":288,"target":34962,"byteStride":12},{"buffer":0,"byteOffset":2256,"byteLength":192,"target":34962,"byteStride":8},{"buffer":0,"byteOffset":2448,"byteLength":72,"target":34963},{"buffer":0,"byteOffset":2520,"byteLength":288,"target":34962,"byteStride":12},{"buffer":0,"byteOffset":2808,"byteLength":288,"target":34962,"byteStride":12},{"buffer":0,"byteOffset":3096,"byteLength":192,"target":34962,"byteStride":8},{"buffer":0,"byteOffset":3288,"byteLength":72,"target":34963},{"buffer":0,"byteOffset":3360,"byteLength":288,"target":34962,"byteStride":12},{"buffer":0,"byteOffset":3648,"byteLength":288,"target":34962,"byteStride":12},{"buffer":0,"byteOffset":3936,"byteLength":192,"target":34962,"byteStride":8},{"buffer":0,"byteOffset":4128,"byteLength":72,"target":34963},{"buffer":0,"byteOffset":4200,"byteLength":288,"target":34962,"byteStride":12},{"buffer":0,"byteOffset":4488,"byteLength":288,"target":34962,"byteStride":12},{"buffer":0,"byteOffset":4776,"byteLength":192,"target":34962,"byteStride":8},{"buffer":0,"byteOffset":4968,"byteLength":72,"target":34963},{"buffer":0,"byteOffset":5040,"byteLength":20},{"buffer":0,"byteOffset":5060,"byteLength":60},{"buffer":0,"byteOffset":5120,"byteLength":20},{"buffer":0,"byteOffset":5140,"byteLength":80},{"buffer":0,"byteOffset":5220,"byteLength":20},{"buffer":0,"byteOffset":5240,"byteLength":60},{"buffer":0,"byteOffset":5300,"byteLength":20},{"buffer":0,"byteOffset":5320,"byteLength":80},{"buffer":0,"byteOffset":5400,"byteLength":20},{"buffer":0,"byteOffset":5420,"byteLength":80},{"buffer":0,"byteOffset":5500,"byteLength":8},{"buffer":0,"byteOffset":5508,"byteLength":32},{"buffer":0,"byteOffset":5540,"byteLength":16},{"buffer":0,"byteOffset":5556,"byteLength":48},{"buffer":0,"byteOffset":5604,"byteLength":12},{"buffer":0,"byteOffset":5616,"byteLength":48},{"buffer":0,"byteOffset":5664,"byteLength":12},{"buffer":0,"byteOffset":5676,"byteLength":48},{"buffer":0,"byteOffset":5724,"byteLength":12},{"buffer":0,"byteOffset":5736,"byteLength":36},{"buffer":0,"byteOffset":5772,"byteLength":12},{"buffer":0,"byteOffset":5784,"byteLength":48},{"buffer":0,"byteOffset":5832,"byteLength":12},{"buffer":0,"byteOffset":5844,"byteLength":36},{"buffer":0,"byteOffset":5880,"byteLength":12},{"buffer":0,"byteOffset":5892,"byteLength":48},{"buffer":0,"byteOffset":5940,"byteLength":12},{"buffer":0,"byteOffset":5952,"byteLength":36}],"buffers":[{"byteLength":5988,"uri":"data:application/octet-stream;base64,"}],"accessors":[{"bufferView":0,"componentType":5126,"count":24,"max":[0.0625,0.078125,0.0625],"min":[-0.0625,-0.296875,-0.0625],"type":"VEC3"},{"bufferView":1,"componentType":5126,"count":24,"max":[1,1,1],"min":[-1,-1,-1],"type":"VEC3"},{"bufferView":2,"componentType":5126,"count":24,"max":[0.6875,0.75],"min":[0.125,0],"type":"VEC2"},{"bufferView":3,"componentType":5123,"count":36,"max":[23],"min":[0],"type":"SCALAR"},{"bufferView":4,"componentType":5126,"count":24,"max":[0.25,0.203125,0.09375],"min":[-0.1875,-0.203125,-0.09375],"type":"VEC3"},{"bufferView":5,"componentType":5126,"count":24,"max":[1,1,1],"min":[-1,-1,-1],"type":"VEC3"},{"bufferView":6,"componentType":5126,"count":24,"max":[0.4375,0.421875],"min":[0,0],"type":"VEC2"},{"bufferView":7,"componentType":5123,"count":36,"max":[23],"min":[0],"type":"SCALAR"},{"bufferView":8,"componentType":5126,"count":24,"max":[0.078125,0.078125,0.0625],"min":[-0.046875,-0.296875,-0.0625],"type":"VEC3"},{"bufferView":9,"componentType":5126,"count":24,"max":[1,1,1],"min":[-1,-1,-1],"type":"VEC3"},{"bufferView":10,"componentType":5126,"count":24,"max":[0.6875,0.6875],"min":[0.0625,0],"type":"VEC2"},{"bufferView":11,"componentType":5123,"count":36,"max":[23],"min":[0],"type":"SCALAR"},{"bufferView":12,"componentType":5126,"count":24,"max":[0,0,0.0625],"min":[-0.125,-0.375,-0.0625],"type":"VEC3"},{"bufferView":13,"componentType":5126,"count":24,"max":[1,1,1],"min":[-1,-1,-1],"type":"VEC3"},{"bufferView":14,"componentType":5126,"count":24,"max":[0.65625,0.6875],"min":[0,0],"type":"VEC2"},{"bufferView":15,"componentType":5123,"count":36,"max":[23],"min":[0],"type":"SCALAR"},{"bufferView":16,"componentType":5126,"count":24,"max":[0.125,0,0.0625],"min":[0,-0.375,-0.0625],"type":"VEC3"},{"bufferView":17,"componentType":5126,"count":24,"max":[1,1,1],"min":[-1,-1,-1],"type":"VEC3"},{"bufferView":18,"componentType":5126,"count":24,"max":[0.65625,0.59375],"min":[0.21875,0.1875],"type":"VEC2"},{"bufferView":19,"componentType":5123,"count":36,"max":[23],"min":[0],"type":"SCALAR"},{"bufferView":20,"componentType":5126,"count":24,"max":[0.078125,0.140625,0.078125],"min":[-0.078125,0,-0.078125],"type":"VEC3"},{"bufferView":21,"componentType":5126,"count":24,"max":[1,1,1],"min":[-1,-1,-1],"type":"VEC3"},{"bufferView":22,"componentType":5126,"count":24,"max":[0.671875,0.6640625],"min":[0.1875,0.1875],"type":"VEC2"},{"bufferView":23,"componentType":5123,"count":36,"max":[23],"min":[0],"type":"SCALAR"},{"bufferView":24,"componentType":5126,"count":5,"max":[1],"min":[0],"type":"SCALAR"},{"bufferView":25,"componentType":5126,"count":5,"max":[0.09375,0.359375,0.0625],"min":[0.09375,0.234375,-0.0625],"type":"VEC3"},{"bufferView":26,"componentType":5126,"count":5,"max":[1],"min":[0],"type":"SCALAR"},{"bufferView":27,"componentType":5126,"count":5,"max":[-0.06540312618017197,0,0,0.9978589415550232],"min":[-0.30070579051971436,0,0,0.9537169337272644],"type":"VEC4"},{"bufferView":28,"componentType":5126,"count":5,"max":[1],"min":[0],"type":"SCALAR"},{"bufferView":29,"componentType":5126,"count":5,"max":[-0.109375,0.359375,0.0625],"min":[-0.109375,0.234375,-0.0625],"type":"VEC3"},{"bufferView":30,"componentType":5126,"count":5,"max":[1],"min":[0],"type":"SCALAR"},{"bufferView":31,"componentType":5126,"count":5,"max":[0.2164396196603775,0,0,0.9997619986534119],"min":[-0.44228869676589966,0,0,0.8968727588653564],"type":"VEC4"},{"bufferView":32,"componentType":5126,"count":5,"max":[1],"min":[0],"type":"SCALAR"},{"bufferView":33,"componentType":5126,"count":5,"max":[0.3826834261417389,0,0,1],"min":[-0.04361938685178757,0,0,0.9238795042037964],"type":"VEC4"},{"bufferView":34,"componentType":5126,"count":2,"max":[1],"min":[0],"type":"SCALAR"},{"bufferView":35,"componentType":5126,"count":2,"max":[-0.15212339162826538,0,0,0.9883615374565125],"min":[-0.15212339162826538,0,0,0.9883615374565125],"type":"VEC4"},{"bufferView":36,"componentType":5126,"count":4,"max":[1],"min":[0],"type":"SCALAR"},{"bufferView":37,"componentType":5126,"count":4,"max":[0,0.71875,-0.0625],"min":[0,0.71875,-0.125],"type":"VEC3"},{"bufferView":38,"componentType":5126,"count":3,"max":[0.5],"min":[0],"type":"SCALAR"},{"bufferView":39,"componentType":5126,"count":3,"max":[0,0,0,1],"min":[-0.19509032368659973,0,0,0.9807852506637573],"type":"VEC4"},{"bufferView":40,"componentType":5126,"count":3,"max":[0.5],"min":[0],"type":"SCALAR"},{"bufferView":41,"componentType":5126,"count":3,"max":[0.9238795042037964,0,0,0.6915130615234375],"min":[0.7223639488220215,0,0,0.3826834261417389],"type":"VEC4"},{"bufferView":42,"componentType":5126,"count":3,"max":[0.5],"min":[0],"type":"SCALAR"},{"bufferView":43,"componentType":5126,"count":3,"max":[-0.1875,0.75,0],"min":[-0.1875,0.640625,-0.109375],"type":"VEC3"},{"bufferView":44,"componentType":5126,"count":3,"max":[0.5],"min":[0],"type":"SCALAR"},{"bufferView":45,"componentType":5126,"count":3,"max":[0.9320078492164612,0,0,0.7071067690849304],"min":[0.7071067690849304,0,0,0.36243805289268494],"type":"VEC4"},{"bufferView":46,"componentType":5126,"count":3,"max":[0.5],"min":[0],"type":"SCALAR"},{"bufferView":47,"componentType":5126,"count":3,"max":[0.203125,0.75,0],"min":[0.203125,0.625,-0.109375],"type":"VEC3"},{"bufferView":48,"componentType":5126,"count":3,"max":[0.5],"min":[0],"type":"SCALAR"},{"bufferView":49,"componentType":5126,"count":3,"max":[0,0,0,1],"min":[-0.237685889005661,0,0,0.9713420867919922],"type":"VEC4"},{"bufferView":50,"componentType":5126,"count":3,"max":[0.5],"min":[0],"type":"SCALAR"},{"bufferView":51,"componentType":5126,"count":3,"max":[0,0.75,0],"min":[0,0.71875,-0.125],"type":"VEC3"}],"materials":[{"pbrMetallicRoughness":{"metallicFactor":0,"roughnessFactor":1,"baseColorTexture":{"index":0}},"alphaMode":"MASK","alphaCutoff":0.05,"doubleSided":true}],"textures":[{"sampler":0,"source":0,"name":"texture"}],"samplers":[{"magFilter":9728,"minFilter":9728,"wrapS":33071,"wrapT":33071}],"images":[{"mimeType":"image/png","uri":"data:image/png;base64,"}],"meshes":[{"primitives":[{"mode":4,"attributes":{"POSITION":0,"NORMAL":1,"TEXCOORD_0":2},"indices":3,"material":0}]},{"primitives":[{"mode":4,"attributes":{"POSITION":4,"NORMAL":5,"TEXCOORD_0":6},"indices":7,"material":0}]},{"primitives":[{"mode":4,"attributes":{"POSITION":8,"NORMAL":9,"TEXCOORD_0":10},"indices":11,"material":0}]},{"primitives":[{"mode":4,"attributes":{"POSITION":12,"NORMAL":13,"TEXCOORD_0":14},"indices":15,"material":0}]},{"primitives":[{"mode":4,"attributes":{"POSITION":16,"NORMAL":17,"TEXCOORD_0":18},"indices":19,"material":0}]},{"primitives":[{"mode":4,"attributes":{"POSITION":20,"NORMAL":21,"TEXCOORD_0":22},"indices":23,"material":0}]}],"animations":[{"name":"walk","samplers":[{"input":24,"output":25,"interpolation":"LINEAR"},{"input":26,"output":27,"interpolation":"LINEAR"},{"input":28,"output":29,"interpolation":"LINEAR"},{"input":30,"output":31,"interpolation":"LINEAR"},{"input":32,"output":33,"interpolation":"LINEAR"},{"input":34,"output":35,"interpolation":"LINEAR"},{"input":36,"output":37,"interpolation":"LINEAR"}],"channels":[{"sampler":0,"target":{"node":1,"path":"translation"}},{"sampler":1,"target":{"node":3,"path":"rotation"}},{"sampler":2,"target":{"node":5,"path":"translation"}},{"sampler":3,"target":{"node":7,"path":"rotation"}},{"sampler":4,"target":{"node":9,"path":"rotation"}},{"sampler":5,"target":{"node":12,"path":"rotation"}},{"sampler":6,"target":{"node":12,"path":"translation"}}]},{"name":"attack","samplers":[{"input":38,"output":39,"interpolation":"LINEAR"},{"input":40,"output":41,"interpolation":"LINEAR"},{"input":42,"output":43,"interpolation":"LINEAR"},{"input":44,"output":45,"interpolation":"LINEAR"},{"input":46,"output":47,"interpolation":"LINEAR"},{"input":48,"output":49,"interpolation":"LINEAR"},{"input":50,"output":51,"interpolation":"LINEAR"}],"channels":[{"sampler":0,"target":{"node":3,"path":"rotation"}},{"sampler":1,"target":{"node":7,"path":"rotation"}},{"sampler":2,"target":{"node":7,"path":"translation"}},{"sampler":3,"target":{"node":9,"path":"rotation"}},{"sampler":4,"target":{"node":9,"path":"translation"}},{"sampler":5,"target":{"node":12,"path":"rotation"}},{"sampler":6,"target":{"node":12,"path":"translation"}}]}]}