{"asset":{"version":"2.0","generator":"Blockbench 4.11.2 glTF exporter"},"scenes":[{"nodes":[13],"name":"blockbench_export"}],"scene":0,"nodes":[{"name":"cube","mesh":0},{"translation":[0.046875,0.296875,0],"name":"bone7","children":[0]},{"name":"cube","mesh":1},{"translation":[0.15937499999999996,0.6000000000000001,0],"name":"bone4","children":[2]},{"translation":[0,0,-0.015625],"name":"cube","mesh":2},{"translation":[0.015625,0.296875,0.015625],"name":"bone6","children":[4]},{"name":"cube","mesh":3},{"translation":[-0.09687499999999999,0.59375,0.0031249999999999993],"name":"bone5","children":[6]},{"rotation":[0.011495014978308501,-0.014038070669056244,-0.7087993881106381,0.705176732895041],"translation":[0.015625,0.015625,0],"name":"cube","mesh":4},{"translation":[0.015625,0.484375,0.025],"name":"bone","children":[8]},{"translation":[-0.024999999999999994,-0.0125000000000004,0],"name":"cube","mesh":5},{"translation":[0.034374999999999996,0.6500000000000001,0],"name":"bone3","children":[10]},{"name":"bone2","children":[1,3,5,7,9,11]},{"children":[12]}],"bufferViews":[{"buffer":0,"byteOffset":0,"byteLength":288,"target":34962,"byteStride":12},{"buffer":0,"byteOffset":288,"byteLength":288,"target":34962,"byteStride":12},{"buffer":0,"byteOffset":576,"byteLength":192,"target":34962,"byteStride":8},{"buffer":0,"byteOffset":768,"byteLength":72,"target":34963},{"buffer":0,"byteOffset":840,"byteLength":288,"target":34962,"byteStride":12},{"buffer":0,"byteOffset":1128,"byteLength":288,"target":34962,"byteStride":12},{"buffer":0,"byteOffset":1416,"byteLength":192,"target":34962,"byteStride":8},{"buffer":0,"byteOffset":1608,"byteLength":72,"target":34963},{"buffer":0,"byteOffset":1680,"byteLength":288,"target":34962,"byteStride":12},{"buffer":0,"byteOffset":1968,"byteLength":288,"target":34962,"byteStride":12},{"buffer":0,"byteOffset":2256,"byteLength":192,"target":34962,"byteStride":8},{"buffer":0,"byteOffset":2448,"byteLength":72,"target":34963},{"buffer":0,"byteOffset":2520,"byteLength":288,"target":34962,"byteStride":12},{"buffer":0,"byteOffset":2808,"byteLength":288,"target":34962,"byteStride":12},{"buffer":0,"byteOffset":3096,"byteLength":192,"target":34962,"byteStride":8},{"buffer":0,"byteOffset":3288,"byteLength":72,"target":34963},{"buffer":0,"byteOffset":3360,"byteLength":288,"target":34962,"byteStride":12},{"buffer":0,"byteOffset":3648,"byteLength":288,"target":34962,"byteStride":12},{"buffer":0,"byteOffset":3936,"byteLength":192,"target":34962,"byteStride":8},{"buffer":0,"byteOffset":4128,"byteLength":72,"target":34963},{"buffer":0,"byteOffset":4200,"byteLength":288,"target":34962,"byteStride":12},{"buffer":0,"byteOffset":4488,"byteLength":288,"target":34962,"byteStride":12},{"buffer":0,"byteOffset":4776,"byteLength":192,"target":34962,"byteStride":8},{"buffer":0,"byteOffset":4968,"byteLength":72,"target":34963},{"buffer":0,"byteOffset":5040,"byteLength":16},{"buffer":0,"byteOffset":5056,"byteLength":48},{"buffer":0,"byteOffset":5104,"byteLength":16},{"buffer":0,"byteOffset":5120,"byteLength":48},{"buffer":0,"byteOffset":5168,"byteLength":16},{"buffer":0,"byteOffset":5184,"byteLength":48},{"buffer":0,"byteOffset":5232,"byteLength":16},{"buffer":0,"byteOffset":5248,"byteLength":48},{"buffer":0,"byteOffset":5296,"byteLength":8},{"buffer":0,"byteOffset":5304,"byteLength":32},{"buffer":0,"byteOffset":5336,"byteLength":20},{"buffer":0,"byteOffset":5356,"byteLength":80},{"buffer":0,"byteOffset":5436,"byteLength":8},{"buffer":0,"byteOffset":5444,"byteLength":24},{"buffer":0,"byteOffset":5468,"byteLength":20},{"buffer":0,"byteOffset":5488,"byteLength":80},{"buffer":0,"byteOffset":5568,"byteLength":20},{"buffer":0,"byteOffset":5588,"byteLength":80},{"buffer":0,"byteOffset":5668,"byteLength":8},{"buffer":0,"byteOffset":5676,"byteLength":24},{"buffer":0,"byteOffset":5700,"byteLength":20},{"buffer":0,"byteOffset":5720,"byteLength":80},{"buffer":0,"byteOffset":5800,"byteLength":20},{"buffer":0,"byteOffset":5820,"byteLength":80},{"buffer":0,"byteOffset":5900,"byteLength":12},{"buffer":0,"byteOffset":5912,"byteLength":48},{"buffer":0,"byteOffset":5960,"byteLength":8},{"buffer":0,"byteOffset":5968,"byteLength":24},{"buffer":0,"byteOffset":5992,"byteLength":8},{"buffer":0,"byteOffset":6000,"byteLength":32},{"buffer":0,"byteOffset":6032,"byteLength":8},{"buffer":0,"byteOffset":6040,"byteLength":32},{"buffer":0,"byteOffset":6072,"byteLength":8},{"buffer":0,"byteOffset":6080,"byteLength":32},{"buffer":0,"byteOffset":6112,"byteLength":20},{"buffer":0,"byteOffset":6132,"byteLength":80},{"buffer":0,"byteOffset":6212,"byteLength":8},{"buffer":0,"byteOffset":6220,"byteLength":24},{"buffer":0,"byteOffset":6244,"byteLength":4},{"buffer":0,"byteOffset":6248,"byteLength":16},{"buffer":0,"byteOffset":6264,"byteLength":20},{"buffer":0,"byteOffset":6284,"byteLength":80},{"buffer":0,"byteOffset":6364,"byteLength":8},{"buffer":0,"byteOffset":6372,"byteLength":24},{"buffer":0,"byteOffset":6396,"byteLength":4},{"buffer":0,"byteOffset":6400,"byteLength":16},{"buffer":0,"byteOffset":6416,"byteLength":20},{"buffer":0,"byteOffset":6436,"byteLength":80},{"buffer":0,"byteOffset":6516,"byteLength":12},{"buffer":0,"byteOffset":6528,"byteLength":48},{"buffer":0,"byteOffset":6576,"byteLength":8},{"buffer":0,"byteOffset":6584,"byteLength":24},{"buffer":0,"byteOffset":6608,"byteLength":8},{"buffer":0,"byteOffset":6616,"byteLength":32},{"buffer":0,"byteOffset":6648,"byteLength":8},{"buffer":0,"byteOffset":6656,"byteLength":32}],"buffers":[{"byteLength":6688,"uri":"data:application/octet-stream;base64,"}],"accessors":[{"bufferView":0,"componentType":5126,"count":24,"max":[0.09375,0,0.046875],"min":[0,-0.296875,-0.046875],"type":"VEC3"},{"bufferView":1,"componentType":5126,"count":24,"max":[1,1,1],"min":[-1,-1,-1],"type":"VEC3"},{"bufferView":2,"componentType":5126,"count":24,"max":[0.546875,0.515625],"min":[0,0],"type":"VEC2"},{"bufferView":3,"componentType":5123,"count":36,"max":[23],"min":[0],"type":"SCALAR"},{"bufferView":4,"componentType":5126,"count":24,"max":[0.09375,0.00937500037252903,0.046875],"min":[2.7755575615628914e-17,-0.2562499940395355,-0.046875],"type":"VEC3"},{"bufferView":5,"componentType":5126,"count":24,"max":[1,1,1],"min":[-1,-1,-1],"type":"VEC3"},{"bufferView":6,"componentType":5126,"count":24,"max":[0.484375,0.515625],"min":[0.125,0],"type":"VEC2"},{"bufferView":7,"componentType":5123,"count":36,"max":[23],"min":[0],"type":"SCALAR"},{"bufferView":8,"componentType":5126,"count":24,"max":[0,0,0.046875],"min":[-0.09375,-0.296875,-0.046875],"type":"VEC3"},{"bufferView":9,"componentType":5126,"count":24,"max":[1,1,1],"min":[-1,-1,-1],"type":"VEC3"},{"bufferView":10,"componentType":5126,"count":24,"max":[0.546875,0.4609375],"min":[0.125,0],"type":"VEC2"},{"bufferView":11,"componentType":5123,"count":36,"max":[23],"min":[0],"type":"SCALAR"},{"bufferView":12,"componentType":5126,"count":24,"max":[0,0.015625,0.04374999925494194],"min":[-0.09375,-0.25,-0.05000000074505806],"type":"VEC3"},{"bufferView":13,"componentType":5126,"count":24,"max":[1,1,1],"min":[-1,-1,-1],"type":"VEC3"},{"bufferView":14,"componentType":5126,"count":24,"max":[0.546875,0.5703125],"min":[0.1875,0.1875],"type":"VEC2"},{"bufferView":15,"componentType":5123,"count":36,"max":[23],"min":[0],"type":"SCALAR"},{"bufferView":16,"componentType":5126,"count":24,"max":[0.20412328839302063,0.1300790160894394,0.03066440485417843],"min":[-0.13962671160697937,-0.13242098689079285,-0.07558559626340866],"type":"VEC3"},{"bufferView":17,"componentType":5126,"count":24,"max":[1,1,1],"min":[-1,-1,-1],"type":"VEC3"},{"bufferView":18,"componentType":5126,"count":24,"max":[0.359375,0.2890625],"min":[0,0],"type":"VEC2"},{"bufferView":19,"componentType":5123,"count":36,"max":[23],"min":[0],"type":"SCALAR"},{"bufferView":20,"componentType":5126,"count":24,"max":[0.078125,0.11249999701976776,0.03125],"min":[-0.03125,4.440892098500626e-16,-0.03125],"type":"VEC3"},{"bufferView":21,"componentType":5126,"count":24,"max":[1,1,1],"min":[-1,-1,-1],"type":"VEC3"},{"bufferView":22,"componentType":5126,"count":24,"max":[0.5546875,0.5234375],"min":[0,0.3125],"type":"VEC2"},{"bufferView":23,"componentType":5123,"count":36,"max":[23],"min":[0],"type":"SCALAR"},{"bufferView":24,"componentType":5126,"count":4,"max":[1.0833333730697632],"min":[0],"type":"SCALAR"},{"bufferView":25,"componentType":5126,"count":4,"max":[0.15937499701976776,0.612500011920929,0],"min":[0.15937499701976776,0.6000000238418579,0],"type":"VEC3"},{"bufferView":26,"componentType":5126,"count":4,"max":[1.0833333730697632],"min":[0],"type":"SCALAR"},{"bufferView":27,"componentType":5126,"count":4,"max":[-0.09687499701976776,0.606249988079071,0.0031250000465661287],"min":[-0.09687499701976776,0.59375,0.0031250000465661287],"type":"VEC3"},{"bufferView":28,"componentType":5126,"count":4,"max":[1.0833333730697632],"min":[0],"type":"SCALAR"},{"bufferView":29,"componentType":5126,"count":4,"max":[0.015625,0.49687498807907104,0.02500000037252903],"min":[0.015625,0.484375,0.02500000037252903],"type":"VEC3"},{"bufferView":30,"componentType":5126,"count":4,"max":[1.0833333730697632],"min":[0],"type":"SCALAR"},{"bufferView":31,"componentType":5126,"count":4,"max":[0.03437500074505806,0.6625000238418579,0],"min":[0.03437500074505806,0.6499999761581421,0],"type":"VEC3"},{"bufferView":32,"componentType":5126,"count":2,"max":[0.6666666865348816],"min":[0],"type":"SCALAR"},{"bufferView":33,"componentType":5126,"count":2,"max":[-0.02181488461792469,0,0,0.9997619986534119],"min":[-0.02181488461792469,0,0,0.9997619986534119],"type":"VEC4"},{"bufferView":34,"componentType":5126,"count":5,"max":[0.6666666865348816],"min":[0],"type":"SCALAR"},{"bufferView":35,"componentType":5126,"count":5,"max":[0.15212339162826538,0,0,0.9940563440322876],"min":[-0.40274667739868164,0,0,0.9153114557266235],"type":"VEC4"},{"bufferView":36,"componentType":5126,"count":2,"max":[0.6666666865348816],"min":[0],"type":"SCALAR"},{"bufferView":37,"componentType":5126,"count":2,"max":[0.046875,0.296875,0.01875000074505806],"min":[0.046875,0.296875,0.01875000074505806],"type":"VEC3"},{"bufferView":38,"componentType":5126,"count":5,"max":[0.6666666865348816],"min":[0],"type":"SCALAR"},{"bufferView":39,"componentType":5126,"count":5,"max":[0.19509032368659973,0,0,0.9990482330322266],"min":[-0.2798290252685547,0,0,0.9600498676300049],"type":"VEC4"},{"bufferView":40,"componentType":5126,"count":5,"max":[0.6666666865348816],"min":[0],"type":"SCALAR"},{"bufferView":41,"componentType":5126,"count":5,"max":[0.2798290252685547,0,0,0.9997619986534119],"min":[-0.258819043636322,0,0,0.9600498676300049],"type":"VEC4"},{"bufferView":42,"componentType":5126,"count":2,"max":[0.6666666865348816],"min":[0],"type":"SCALAR"},{"bufferView":43,"componentType":5126,"count":2,"max":[0.015625,0.296875,0.07187499850988388],"min":[0.015625,0.296875,0.07187499850988388],"type":"VEC3"},{"bufferView":44,"componentType":5126,"count":5,"max":[0.6666666865348816],"min":[0],"type":"SCALAR"},{"bufferView":45,"componentType":5126,"count":5,"max":[0.40274667739868164,0,0,0.9978589415550232],"min":[-0.1736481785774231,0,0,0.9153114557266235],"type":"VEC4"},{"bufferView":46,"componentType":5126,"count":5,"max":[0.6666666865348816],"min":[0],"type":"SCALAR"},{"bufferView":47,"componentType":5126,"count":5,"max":[-0.13052618503570557,0,0,0.9914448857307434],"min":[-0.237685889005661,0,0,0.9713420867919922],"type":"VEC4"},{"bufferView":48,"componentType":5126,"count":3,"max":[0.6666666865348816],"min":[0],"type":"SCALAR"},{"bufferView":49,"componentType":5126,"count":3,"max":[0,0,0,1],"min":[-0.10886687785387039,0,0,0.9940563440322876],"type":"VEC4"},{"bufferView":50,"componentType":5126,"count":2,"max":[0.6666666865348816],"min":[0],"type":"SCALAR"},{"bufferView":51,"componentType":5126,"count":2,"max":[0.03437500074505806,0.6499999761581421,-0.0625],"min":[0.03437500074505806,0.6499999761581421,-0.0625],"type":"VEC3"},{"bufferView":52,"componentType":5126,"count":2,"max":[0.5833333134651184],"min":[0],"type":"SCALAR"},{"bufferView":53,"componentType":5126,"count":2,"max":[0.538985550403595,0.19617469608783722,0,1],"min":[0,0,-0.28016650676727295,0.7697511315345764],"type":"VEC4"},{"bufferView":54,"componentType":5126,"count":2,"max":[0.5833333134651184],"min":[0],"type":"SCALAR"},{"bufferView":55,"componentType":5126,"count":2,"max":[0.5189915895462036,0,0.21828576922416687,1],"min":[0,-0.13906337320804596,0,0.8146535754203796],"type":"VEC4"},{"bufferView":56,"componentType":5126,"count":2,"max":[0.6666666865348816],"min":[0],"type":"SCALAR"},{"bufferView":57,"componentType":5126,"count":2,"max":[-0.02181488461792469,0,0,0.9997619986534119],"min":[-0.02181488461792469,0,0,0.9997619986534119],"type":"VEC4"},{"bufferView":58,"componentType":5126,"count":5,"max":[0.6666666865348816],"min":[0],"type":"SCALAR"},{"bufferView":59,"componentType":5126,"count":5,"max":[0.15212339162826538,0,0,0.9940563440322876],"min":[-0.40274667739868164,0,0,0.9153114557266235],"type":"VEC4"},{"bufferView":60,"componentType":5126,"count":2,"max":[0.6666666865348816],"min":[0],"type":"SCALAR"},{"bufferView":61,"componentType":5126,"count":2,"max":[0.046875,0.296875,0.01875000074505806],"min":[0.046875,0.296875,0.01875000074505806],"type":"VEC3"},{"bufferView":62,"componentType":5126,"count":1,"max":[0],"min":[0],"type":"SCALAR"},{"bufferView":63,"componentType":5126,"count":1,"max":[0.6208851337432861,0.16636566817760468,-0.1982668936252594,0.7399421334266663],"min":[0.6208851337432861,0.16636566817760468,-0.1982668936252594,0.7399421334266663],"type":"VEC4"},{"bufferView":64,"componentType":5126,"count":5,"max":[0.6666666865348816],"min":[0],"type":"SCALAR"},{"bufferView":65,"componentType":5126,"count":5,"max":[0.2798290252685547,0,0,0.9997619986534119],"min":[-0.258819043636322,0,0,0.9600498676300049],"type":"VEC4"},{"bufferView":66,"componentType":5126,"count":2,"max":[0.6666666865348816],"min":[0],"type":"SCALAR"},{"bufferView":67,"componentType":5126,"count":2,"max":[0.015625,0.296875,0.07187499850988388],"min":[0.015625,0.296875,0.07187499850988388],"type":"VEC3"},{"bufferView":68,"componentType":5126,"count":1,"max":[0],"min":[0],"type":"SCALAR"},{"bufferView":69,"componentType":5126,"count":1,"max":[0.628829300403595,-0.19826911389827728,0.22608259320259094,0.7170423865318298],"min":[0.628829300403595,-0.19826911389827728,0.22608259320259094,0.7170423865318298],"type":"VEC4"},{"bufferView":70,"componentType":5126,"count":5,"max":[0.6666666865348816],"min":[0],"type":"SCALAR"},{"bufferView":71,"componentType":5126,"count":5,"max":[-0.13052618503570557,0,0,0.9914448857307434],"min":[-0.237685889005661,0,0,0.9713420867919922],"type":"VEC4"},{"bufferView":72,"componentType":5126,"count":3,"max":[0.6666666865348816],"min":[0],"type":"SCALAR"},{"bufferView":73,"componentType":5126,"count":3,"max":[0,0,0,1],"min":[-0.10886687785387039,0,0,0.9940563440322876],"type":"VEC4"},{"bufferView":74,"componentType":5126,"count":2,"max":[0.6666666865348816],"min":[0],"type":"SCALAR"},{"bufferView":75,"componentType":5126,"count":2,"max":[0.03437500074505806,0.6499999761581421,-0.0625],"min":[0.03437500074505806,0.6499999761581421,-0.0625],"type":"VEC3"},{"bufferView":76,"componentType":5126,"count":2,"max":[0.5833333134651184],"min":[0],"type":"SCALAR"},{"bufferView":77,"componentType":5126,"count":2,"max":[0.538985550403595,0.19617469608783722,0,1],"min":[0,0,-0.28016650676727295,0.7697511315345764],"type":"VEC4"},{"bufferView":78,"componentType":5126,"count":2,"max":[0.5833333134651184],"min":[0],"type":"SCALAR"},{"bufferView":79,"componentType":5126,"count":2,"max":[0.5189915895462036,0,0.21828576922416687,1],"min":[0,-0.13906337320804596,0,0.8146535754203796],"type":"VEC4"}],"materials":[{"pbrMetallicRoughness":{"metallicFactor":0,"roughnessFactor":1,"baseColorTexture":{"index":0}},"alphaMode":"MASK","alphaCutoff":0.05,"doubleSided":true}],"textures":[{"sampler":0,"source":0,"name":"texture"}],"samplers":[{"magFilter":9728,"minFilter":9728,"wrapS":33071,"wrapT":33071}],"images":[{"mimeType":"image/png","uri":"data:image/png;base64,"}],"meshes":[{"primitives":[{"mode":4,"attributes":{"POSITION":0,"NORMAL":1,"TEXCOORD_0":2},"indices":3,"material":0}]},{"primitives":[{"mode":4,"attributes":{"POSITION":4,"NORMAL":5,"TEXCOORD_0":6},"indices":7,"material":0}]},{"primitives":[{"mode":4,"attributes":{"POSITION":8,"NORMAL":9,"TEXCOORD_0":10},"indices":11,"material":0}]},{"primitives":[{"mode":4,"attributes":{"POSITION":12,"NORMAL":13,"TEXCOORD_0":14},"indices":15,"material":0}]},{"primitives":[{"mode":4,"attributes":{"POSITION":16,"NORMAL":17,"TEXCOORD_0":18},"indices":19,"material":0}]},{"primitives":[{"mode":4,"attributes":{"POSITION":20,"NORMAL":21,"TEXCOORD_0":22},"indices":23,"material":0}]}],"animations":[{"name":"idle","samplers":[{"input":24,"output":25,"interpolation":"LINEAR"},{"input":26,"output":27,"interpolation":"LINEAR"},{"input":28,"output":29,"interpolation":"LINEAR"},{"input":30,"output":31,"interpolation":"LINEAR"}],"channels":[{"sampler":0,"target":{"node":3,"path":"translation"}},{"sampler":1,"target":{"node":7,"path":"translation"}},{"sampler":2,"target":{"node":9,"path":"translation"}},{"sampler":3,"target":{"node":11,"path":"translation"}}]},{"name":"run","samplers":[{"input":32,"output":33,"interpolation":"LINEAR"},{"input":34,"output":35,"interpolation":"LINEAR"},{"input":36,"output":37,"interpolation":"LINEAR"},{"input":38,"output":39,"interpolation":"LINEAR"},{"input":40,"output":41,"interpolation":"LINEAR"},{"input":42,"output":43,"interpolation":"LINEAR"},{"input":44,"output":45,"interpolation":"LINEAR"},{"input":46,"output":47,"interpolation":"LINEAR"},{"input":48,"output":49,"interpolation":"LINEAR"},{"input":50,"output":51,"interpolation":"LINEAR"}],"channels":[{"sampler":0,"target":{"node":12,"path":"rotation"}},{"sampler":1,"target":{"node":1,"path":"rotation"}},{"sampler":2,"target":{"node":1,"path":"translation"}},{"sampler":3,"target":{"node":3,"path":"rotation"}},{"sampler":4,"target":{"node":5,"path":"rotation"}},{"sampler":5,"target":{"node":5,"path":"translation"}},{"sampler":6,"target":{"node":7,"path":"rotation"}},{"sampler":7,"target":{"node":9,"path":"rotation"}},{"sampler":8,"target":{"node":11,"path":"rotation"}},{"sampler":9,"target":{"node":11,"path":"translation"}}]},{"name":"shootdile","samplers":[{"input":52,"output":53,"interpolation":"LINEAR"},{"input":54,"output":55,"interpolation":"LINEAR"}],"channels":[{"sampler":0,"target":{"node":3,"path":"rotation"}},{"sampler":1,"target":{"node":7,"path":"rotation"}}]},{"name":"runshoot","samplers":[{"input":56,"output":57,"interpolation":"LINEAR"},{"input":58,"output":59,"interpolation":"LINEAR"},{"input":60,"output":61,"interpolation":"LINEAR"},{"input":62,"output":63,"interpolation":"LINEAR"},{"input":64,"output":65,"interpolation":"LINEAR"},{"input":66,"output":67,"interpolation":"LINEAR"},{"input":68,"output":69,"interpolation":"LINEAR"},{"input":70,"output":71,"interpolation":"LINEAR"},{"input":72,"output":73,"interpolation":"LINEAR"},{"input":74,"output":75,"interpolation":"LINEAR"}],"channels":[{"sampler":0,"target":{"node":12,"path":"rotation"}},{"sampler":1,"target":{"node":1,"path":"rotation"}},{"sampler":2,"target":{"node":1,"path":"translation"}},{"sampler":3,"target":{"node":3,"path":"rotation"}},{"sampler":4,"target":{"node":5,"path":"rotation"}},{"sampler":5,"target":{"node":5,"path":"translation"}},{"sampler":6,"target":{"node":7,"path":"rotation"}},{"sampler":7,"target":{"node":9,"path":"rotation"}},{"sampler":8,"target":{"node":11,"path":"rotation"}},{"sampler":9,"target":{"node":11,"path":"translation"}}]},{"name":"shootdileend","samplers":[{"input":76,"output":77,"interpolation":"LINEAR"},{"input":78,"output":79,"interpolation":"LINEAR"}],"channels":[{"sampler":0,"target":{"node":3,"path":"rotation"}},{"sampler":1,"target":{"node":7,"path":"rotation"}}]}]}