{"asset":{"version":"2.0","generator":"Blockbench 4.11.2 glTF exporter"},"scenes":[{"nodes":[7],"name":"blockbench_export"}],"scene":0,"nodes":[{"translation":[0.018749999999999996,0.16562500000000013,-0.025],"name":"bone3"},{"translation":[-0.11249999999999999,0.109375,-0.021875000000000002],"name":"bone5"},{"translation":[0,-0.1875,-0.009375000000000001],"name":"bone6"},{"translation":[0.14374999999999996,0.11562500000000009,-0.025],"name":"bone4"},{"translation":[0.03125,-0.1875,-0.025],"name":"bone7"},{"translation":[0.015625,0.484375,0.025],"name":"bone","children":[0,1,2,3,4]},{"name":"bone2","children":[5]},{"name":"bone2","mesh":0,"children":[6],"skin":0}],"bufferViews":[{"buffer":0,"byteOffset":0,"byteLength":1728,"target":34962,"byteStride":12},{"buffer":0,"byteOffset":1728,"byteLength":1728,"target":34962,"byteStride":12},{"buffer":0,"byteOffset":3456,"byteLength":1152,"target":34962,"byteStride":8},{"buffer":0,"byteOffset":4608,"byteLength":1152,"target":34962,"byteStride":8},{"buffer":0,"byteOffset":5760,"byteLength":2304,"target":34962,"byteStride":16},{"buffer":0,"byteOffset":8064,"byteLength":432,"target":34963},{"buffer":0,"byteOffset":8496,"byteLength":448},{"buffer":0,"byteOffset":8944,"byteLength":16},{"buffer":0,"byteOffset":8960,"byteLength":48},{"buffer":0,"byteOffset":9008,"byteLength":16},{"buffer":0,"byteOffset":9024,"byteLength":48},{"buffer":0,"byteOffset":9072,"byteLength":16},{"buffer":0,"byteOffset":9088,"byteLength":48},{"buffer":0,"byteOffset":9136,"byteLength":16},{"buffer":0,"byteOffset":9152,"byteLength":48},{"buffer":0,"byteOffset":9200,"byteLength":8},{"buffer":0,"byteOffset":9208,"byteLength":32},{"buffer":0,"byteOffset":9240,"byteLength":20},{"buffer":0,"byteOffset":9260,"byteLength":80},{"buffer":0,"byteOffset":9340,"byteLength":8},{"buffer":0,"byteOffset":9348,"byteLength":24},{"buffer":0,"byteOffset":9372,"byteLength":20},{"buffer":0,"byteOffset":9392,"byteLength":80},{"buffer":0,"byteOffset":9472,"byteLength":20},{"buffer":0,"byteOffset":9492,"byteLength":80},{"buffer":0,"byteOffset":9572,"byteLength":8},{"buffer":0,"byteOffset":9580,"byteLength":24},{"buffer":0,"byteOffset":9604,"byteLength":20},{"buffer":0,"byteOffset":9624,"byteLength":80},{"buffer":0,"byteOffset":9704,"byteLength":20},{"buffer":0,"byteOffset":9724,"byteLength":80},{"buffer":0,"byteOffset":9804,"byteLength":12},{"buffer":0,"byteOffset":9816,"byteLength":48},{"buffer":0,"byteOffset":9864,"byteLength":8},{"buffer":0,"byteOffset":9872,"byteLength":24},{"buffer":0,"byteOffset":9896,"byteLength":8},{"buffer":0,"byteOffset":9904,"byteLength":32},{"buffer":0,"byteOffset":9936,"byteLength":8},{"buffer":0,"byteOffset":9944,"byteLength":32},{"buffer":0,"byteOffset":9976,"byteLength":8},{"buffer":0,"byteOffset":9984,"byteLength":32},{"buffer":0,"byteOffset":10016,"byteLength":20},{"buffer":0,"byteOffset":10036,"byteLength":80},{"buffer":0,"byteOffset":10116,"byteLength":8},{"buffer":0,"byteOffset":10124,"byteLength":24},{"buffer":0,"byteOffset":10148,"byteLength":4},{"buffer":0,"byteOffset":10152,"byteLength":16},{"buffer":0,"byteOffset":10168,"byteLength":20},{"buffer":0,"byteOffset":10188,"byteLength":80},{"buffer":0,"byteOffset":10268,"byteLength":8},{"buffer":0,"byteOffset":10276,"byteLength":24},{"buffer":0,"byteOffset":10300,"byteLength":4},{"buffer":0,"byteOffset":10304,"byteLength":16},{"buffer":0,"byteOffset":10320,"byteLength":20},{"buffer":0,"byteOffset":10340,"byteLength":80},{"buffer":0,"byteOffset":10420,"byteLength":12},{"buffer":0,"byteOffset":10432,"byteLength":48},{"buffer":0,"byteOffset":10480,"byteLength":8},{"buffer":0,"byteOffset":10488,"byteLength":24},{"buffer":0,"byteOffset":10512,"byteLength":8},{"buffer":0,"byteOffset":10520,"byteLength":32},{"buffer":0,"byteOffset":10552,"byteLength":8},{"buffer":0,"byteOffset":10560,"byteLength":32},{"buffer":0,"byteOffset":10592,"byteLength":8},{"buffer":0,"byteOffset":10600,"byteLength":32},{"buffer":0,"byteOffset":10632,"byteLength":12},{"buffer":0,"byteOffset":10644,"byteLength":48},{"buffer":0,"byteOffset":10692,"byteLength":8},{"buffer":0,"byteOffset":10700,"byteLength":32},{"buffer":0,"byteOffset":10732,"byteLength":12},{"buffer":0,"byteOffset":10744,"byteLength":48}],"buffers":[{"byteLength":10792,"uri":"data:application/octet-stream;base64,"}],"accessors":[{"bufferView":0,"componentType":5126,"count":144,"max":[0.25312501192092896,0.75,0.06105678901076317],"min":[-0.19062499701976776,0,-0.055807024240493774],"type":"VEC3"},{"bufferView":1,"componentType":5126,"count":144,"max":[1,1,1],"min":[-1,-1,-1],"type":"VEC3"},{"bufferView":2,"componentType":5126,"count":144,"max":[0.5546875,0.5703125],"min":[0,0],"type":"VEC2"},{"bufferView":3,"componentType":5123,"count":144,"max":[0,6,0,0],"min":[0,1,0,0],"type":"VEC4"},{"bufferView":4,"componentType":5126,"count":144,"max":[0,1,0,0],"min":[0,1,0,0],"type":"VEC4"},{"bufferView":5,"componentType":5123,"count":216,"max":[143],"min":[0],"type":"SCALAR"},{"bufferView":6,"componentType":5126,"count":7,"max":[1,0,0,0,0,1,0,0,0,0,1,0,0.09687499701976776,0,0,1],"min":[1,0,0,0,0,1,0,0,0,0,1,0,-0.15937499701976776,-0.6499999761581421,-0.02500000037252903,1],"type":"MAT4"},{"bufferView":7,"componentType":5126,"count":4,"max":[1.0833333730697632],"min":[0],"type":"SCALAR"},{"bufferView":8,"componentType":5126,"count":4,"max":[0.14374999701976776,0.12812499701976776,-0.02500000037252903],"min":[0.14374999701976776,0.11562500149011612,-0.02500000037252903],"type":"VEC3"},{"bufferView":9,"componentType":5126,"count":4,"max":[1.0833333730697632],"min":[0],"type":"SCALAR"},{"bufferView":10,"componentType":5126,"count":4,"max":[-0.11249999701976776,0.12187500298023224,-0.02187499962747097],"min":[-0.11249999701976776,0.109375,-0.02187499962747097],"type":"VEC3"},{"bufferView":11,"componentType":5126,"count":4,"max":[1.0833333730697632],"min":[0],"type":"SCALAR"},{"bufferView":12,"componentType":5126,"count":4,"max":[0.015625,0.49687498807907104,0.02500000037252903],"min":[0.015625,0.484375,0.02500000037252903],"type":"VEC3"},{"bufferView":13,"componentType":5126,"count":4,"max":[1.0833333730697632],"min":[0],"type":"SCALAR"},{"bufferView":14,"componentType":5126,"count":4,"max":[0.01875000074505806,0.17812499403953552,-0.02500000037252903],"min":[0.01875000074505806,0.16562500596046448,-0.02500000037252903],"type":"VEC3"},{"bufferView":15,"componentType":5126,"count":2,"max":[0.6666666865348816],"min":[0],"type":"SCALAR"},{"bufferView":16,"componentType":5126,"count":2,"max":[-0.02181488461792469,0,0,0.9997619986534119],"min":[-0.02181488461792469,0,0,0.9997619986534119],"type":"VEC4"},{"bufferView":17,"componentType":5126,"count":5,"max":[0.6666666865348816],"min":[0],"type":"SCALAR"},{"bufferView":18,"componentType":5126,"count":5,"max":[0.15212339162826538,0,0,0.9940563440322876],"min":[-0.40274667739868164,0,0,0.9153114557266235],"type":"VEC4"},{"bufferView":19,"componentType":5126,"count":2,"max":[0.6666666865348816],"min":[0],"type":"SCALAR"},{"bufferView":20,"componentType":5126,"count":2,"max":[0.03125,-0.1875,-0.0062500000931322575],"min":[0.03125,-0.1875,-0.0062500000931322575],"type":"VEC3"},{"bufferView":21,"componentType":5126,"count":5,"max":[0.6666666865348816],"min":[0],"type":"SCALAR"},{"bufferView":22,"componentType":5126,"count":5,"max":[0.19509032368659973,0,0,0.9990482330322266],"min":[-0.2798290252685547,0,0,0.9600498676300049],"type":"VEC4"},{"bufferView":23,"componentType":5126,"count":5,"max":[0.6666666865348816],"min":[0],"type":"SCALAR"},{"bufferView":24,"componentType":5126,"count":5,"max":[0.2798290252685547,0,0,0.9997619986534119],"min":[-0.258819043636322,0,0,0.9600498676300049],"type":"VEC4"},{"bufferView":25,"componentType":5126,"count":2,"max":[0.6666666865348816],"min":[0],"type":"SCALAR"},{"bufferView":26,"componentType":5126,"count":2,"max":[0,-0.1875,0.046875],"min":[0,-0.1875,0.046875],"type":"VEC3"},{"bufferView":27,"componentType":5126,"count":5,"max":[0.6666666865348816],"min":[0],"type":"SCALAR"},{"bufferView":28,"componentType":5126,"count":5,"max":[0.40274667739868164,0,0,0.9978589415550232],"min":[-0.1736481785774231,0,0,0.9153114557266235],"type":"VEC4"},{"bufferView":29,"componentType":5126,"count":5,"max":[0.6666666865348816],"min":[0],"type":"SCALAR"},{"bufferView":30,"componentType":5126,"count":5,"max":[-0.02181488461792469,0,0,0.9997619986534119],"min":[-0.10886687785387039,0,0,0.9940563440322876],"type":"VEC4"},{"bufferView":31,"componentType":5126,"count":3,"max":[0.6666666865348816],"min":[0],"type":"SCALAR"},{"bufferView":32,"componentType":5126,"count":3,"max":[0,0,0,1],"min":[-0.10886687785387039,0,0,0.9940563440322876],"type":"VEC4"},{"bufferView":33,"componentType":5126,"count":2,"max":[0.6666666865348816],"min":[0],"type":"SCALAR"},{"bufferView":34,"componentType":5126,"count":2,"max":[0.01875000074505806,0.16562500596046448,-0.08749999850988388],"min":[0.01875000074505806,0.16562500596046448,-0.08749999850988388],"type":"VEC3"},{"bufferView":35,"componentType":5126,"count":2,"max":[0.5833333134651184],"min":[0],"type":"SCALAR"},{"bufferView":36,"componentType":5126,"count":2,"max":[0.538985550403595,0.19617469608783722,0,1],"min":[0,0,-0.28016650676727295,0.7697511315345764],"type":"VEC4"},{"bufferView":37,"componentType":5126,"count":2,"max":[0.5833333134651184],"min":[0],"type":"SCALAR"},{"bufferView":38,"componentType":5126,"count":2,"max":[0.5189915895462036,0,0.21828576922416687,1],"min":[0,-0.13906337320804596,0,0.8146535754203796],"type":"VEC4"},{"bufferView":39,"componentType":5126,"count":2,"max":[0.6666666865348816],"min":[0],"type":"SCALAR"},{"bufferView":40,"componentType":5126,"count":2,"max":[-0.02181488461792469,0,0,0.9997619986534119],"min":[-0.02181488461792469,0,0,0.9997619986534119],"type":"VEC4"},{"bufferView":41,"componentType":5126,"count":5,"max":[0.6666666865348816],"min":[0],"type":"SCALAR"},{"bufferView":42,"componentType":5126,"count":5,"max":[0.15212339162826538,0,0,0.9940563440322876],"min":[-0.40274667739868164,0,0,0.9153114557266235],"type":"VEC4"},{"bufferView":43,"componentType":5126,"count":2,"max":[0.6666666865348816],"min":[0],"type":"SCALAR"},{"bufferView":44,"componentType":5126,"count":2,"max":[0.03125,-0.1875,-0.0062500000931322575],"min":[0.03125,-0.1875,-0.0062500000931322575],"type":"VEC3"},{"bufferView":45,"componentType":5126,"count":1,"max":[0],"min":[0],"type":"SCALAR"},{"bufferView":46,"componentType":5126,"count":1,"max":[0.6208851337432861,0.16636566817760468,-0.1982668936252594,0.7399421334266663],"min":[0.6208851337432861,0.16636566817760468,-0.1982668936252594,0.7399421334266663],"type":"VEC4"},{"bufferView":47,"componentType":5126,"count":5,"max":[0.6666666865348816],"min":[0],"type":"SCALAR"},{"bufferView":48,"componentType":5126,"count":5,"max":[0.2798290252685547,0,0,0.9997619986534119],"min":[-0.258819043636322,0,0,0.9600498676300049],"type":"VEC4"},{"bufferView":49,"componentType":5126,"count":2,"max":[0.6666666865348816],"min":[0],"type":"SCALAR"},{"bufferView":50,"componentType":5126,"count":2,"max":[0,-0.1875,0.046875],"min":[0,-0.1875,0.046875],"type":"VEC3"},{"bufferView":51,"componentType":5126,"count":1,"max":[0],"min":[0],"type":"SCALAR"},{"bufferView":52,"componentType":5126,"count":1,"max":[0.628829300403595,-0.19826911389827728,0.22608259320259094,0.7170423865318298],"min":[0.628829300403595,-0.19826911389827728,0.22608259320259094,0.7170423865318298],"type":"VEC4"},{"bufferView":53,"componentType":5126,"count":5,"max":[0.6666666865348816],"min":[0],"type":"SCALAR"},{"bufferView":54,"componentType":5126,"count":5,"max":[-0.02181488461792469,0,0,0.9997619986534119],"min":[-0.08715574443340302,0,0,0.9961947202682495],"type":"VEC4"},{"bufferView":55,"componentType":5126,"count":3,"max":[0.6666666865348816],"min":[0],"type":"SCALAR"},{"bufferView":56,"componentType":5126,"count":3,"max":[0,0,0,1],"min":[-0.10886687785387039,0,0,0.9940563440322876],"type":"VEC4"},{"bufferView":57,"componentType":5126,"count":2,"max":[0.6666666865348816],"min":[0],"type":"SCALAR"},{"bufferView":58,"componentType":5126,"count":2,"max":[0.01875000074505806,0.16562500596046448,-0.08749999850988388],"min":[0.01875000074505806,0.16562500596046448,-0.08749999850988388],"type":"VEC3"},{"bufferView":59,"componentType":5126,"count":2,"max":[0.5833333134651184],"min":[0],"type":"SCALAR"},{"bufferView":60,"componentType":5126,"count":2,"max":[0.538985550403595,0.19617469608783722,0,1],"min":[0,0,-0.28016650676727295,0.7697511315345764],"type":"VEC4"},{"bufferView":61,"componentType":5126,"count":2,"max":[0.5833333134651184],"min":[0],"type":"SCALAR"},{"bufferView":62,"componentType":5126,"count":2,"max":[0.5189915895462036,0,0.21828576922416687,1],"min":[0,-0.13906337320804596,0,0.8146535754203796],"type":"VEC4"},{"bufferView":63,"componentType":5126,"count":2,"max":[0.25],"min":[0],"type":"SCALAR"},{"bufferView":64,"componentType":5126,"count":2,"max":[0.2125142216682434,-0.20769654214382172,0.3564746081829071,0.9071042537689209],"min":[0.10656699538230896,-0.22650809586048126,0.3383777141571045,0.885791003704071],"type":"VEC4"},{"bufferView":65,"componentType":5126,"count":3,"max":[0.5],"min":[0],"type":"SCALAR"},{"bufferView":66,"componentType":5126,"count":3,"max":[0.5182830691337585,0.06338481605052948,0.6388735175132751,0.6217524409294128],"min":[0.5147173404693604,0.018283046782016754,0.5869176387786865,0.5682332515716553],"type":"VEC4"},{"bufferView":67,"componentType":5126,"count":2,"max":[0.25],"min":[0],"type":"SCALAR"},{"bufferView":68,"componentType":5126,"count":2,"max":[0.3303660750389099,-0.0669872984290123,-0.2432103455066681,0.9330127239227295],"min":[0.25,-0.0885213240981102,-0.25,0.9076733589172363],"type":"VEC4"},{"bufferView":69,"componentType":5126,"count":3,"max":[0.5],"min":[0],"type":"SCALAR"},{"bufferView":70,"componentType":5126,"count":3,"max":[0.5697870254516602,0.1776326447725296,-0.5245634913444519,0.6218134164810181],"min":[0.5537399053573608,0.11629291623830795,-0.5891405344009399,0.56100994348526],"type":"VEC4"}],"materials":[{"pbrMetallicRoughness":{"metallicFactor":0,"roughnessFactor":1,"baseColorTexture":{"index":0}},"alphaMode":"MASK","alphaCutoff":0.05,"doubleSided":true}],"textures":[{"sampler":0,"source":0,"name":"texture"}],"samplers":[{"magFilter":9728,"minFilter":9728,"wrapS":33071,"wrapT":33071}],"images":[{"mimeType":"image/png","uri":"data:image/png;base64,"}],"meshes":[{"primitives":[{"mode":4,"attributes":{"POSITION":0,"NORMAL":1,"TEXCOORD_0":2,"JOINTS_0":3,"WEIGHTS_0":4},"indices":5,"material":0}]}],"skins":[{"inverseBindMatrices":6,"joints":[6,5,0,1,2,3,4],"skeleton":6}],"animations":[{"name":"idle","samplers":[{"input":7,"output":8,"interpolation":"LINEAR"},{"input":9,"output":10,"interpolation":"LINEAR"},{"input":11,"output":12,"interpolation":"LINEAR"},{"input":13,"output":14,"interpolation":"LINEAR"}],"channels":[{"sampler":0,"target":{"node":3,"path":"translation"}},{"sampler":1,"target":{"node":1,"path":"translation"}},{"sampler":2,"target":{"node":5,"path":"translation"}},{"sampler":3,"target":{"node":0,"path":"translation"}}]},{"name":"run","samplers":[{"input":15,"output":16,"interpolation":"LINEAR"},{"input":17,"output":18,"interpolation":"LINEAR"},{"input":19,"output":20,"interpolation":"LINEAR"},{"input":21,"output":22,"interpolation":"LINEAR"},{"input":23,"output":24,"interpolation":"LINEAR"},{"input":25,"output":26,"interpolation":"LINEAR"},{"input":27,"output":28,"interpolation":"LINEAR"},{"input":29,"output":30,"interpolation":"LINEAR"},{"input":31,"output":32,"interpolation":"LINEAR"},{"input":33,"output":34,"interpolation":"LINEAR"}],"channels":[{"sampler":0,"target":{"node":6,"path":"rotation"}},{"sampler":1,"target":{"node":4,"path":"rotation"}},{"sampler":2,"target":{"node":4,"path":"translation"}},{"sampler":3,"target":{"node":3,"path":"rotation"}},{"sampler":4,"target":{"node":2,"path":"rotation"}},{"sampler":5,"target":{"node":2,"path":"translation"}},{"sampler":6,"target":{"node":1,"path":"rotation"}},{"sampler":7,"target":{"node":5,"path":"rotation"}},{"sampler":8,"target":{"node":0,"path":"rotation"}},{"sampler":9,"target":{"node":0,"path":"translation"}}]},{"name":"shootdile","samplers":[{"input":35,"output":36,"interpolation":"LINEAR"},{"input":37,"output":38,"interpolation":"LINEAR"}],"channels":[{"sampler":0,"target":{"node":3,"path":"rotation"}},{"sampler":1,"target":{"node":1,"path":"rotation"}}]},{"name":"runshoot","samplers":[{"input":39,"output":40,"interpolation":"LINEAR"},{"input":41,"output":42,"interpolation":"LINEAR"},{"input":43,"output":44,"interpolation":"LINEAR"},{"input":45,"output":46,"interpolation":"LINEAR"},{"input":47,"output":48,"interpolation":"LINEAR"},{"input":49,"output":50,"interpolation":"LINEAR"},{"input":51,"output":52,"interpolation":"LINEAR"},{"input":53,"output":54,"interpolation":"LINEAR"},{"input":55,"output":56,"interpolation":"LINEAR"},{"input":57,"output":58,"interpolation":"LINEAR"}],"channels":[{"sampler":0,"target":{"node":6,"path":"rotation"}},{"sampler":1,"target":{"node":4,"path":"rotation"}},{"sampler":2,"target":{"node":4,"path":"translation"}},{"sampler":3,"target":{"node":3,"path":"rotation"}},{"sampler":4,"target":{"node":2,"path":"rotation"}},{"sampler":5,"target":{"node":2,"path":"translation"}},{"sampler":6,"target":{"node":1,"path":"rotation"}},{"sampler":7,"target":{"node":5,"path":"rotation"}},{"sampler":8,"target":{"node":0,"path":"rotation"}},{"sampler":9,"target":{"node":0,"path":"translation"}}]},{"name":"shootdileend","samplers":[{"input":59,"output":60,"interpolation":"LINEAR"},{"input":61,"output":62,"interpolation":"LINEAR"}],"channels":[{"sampler":0,"target":{"node":3,"path":"rotation"}},{"sampler":1,"target":{"node":1,"path":"rotation"}}]},{"name":"jump","samplers":[{"input":63,"output":64,"interpolation":"LINEAR"},{"input":65,"output":66,"interpolation":"LINEAR"},{"input":67,"output":68,"interpolation":"LINEAR"},{"input":69,"output":70,"interpolation":"LINEAR"}],"channels":[{"sampler":0,"target":{"node":4,"path":"rotation"}},{"sampler":1,"target":{"node":3,"path":"rotation"}},{"sampler":2,"target":{"node":2,"path":"rotation"}},{"sampler":3,"target":{"node":1,"path":"rotation"}}]}]}